<svg width="1136" height="1136" viewBox="0 0 1136 1136" fill="none" xmlns="http://www.w3.org/2000/svg">
<path d="M398.105 573.668V484.211C398.444 477.434 403.39 461.44 420.468 451.682C437.381 442.017 635.811 339.833 735.75 288.49C737.102 287.795 738.649 288.809 738.649 290.33V374.424C738.649 384.589 734.519 384.589 700.02 403.904L429.617 537.072C419.113 544.188 398.105 561.469 398.105 573.668Z" fill="black"/>
<path d="M589.216 506.575V597.049L694.938 546.221C709.169 538.766 738.649 529.956 738.649 501.493C738.649 483.583 738.988 436.433 738.649 415.086C735.939 422.54 719.27 440.944 701.989 450.665C688.977 457.984 625.473 489.633 589.216 506.575Z" fill="black"/>
<path d="M544.489 528.94V848.137L418.436 784.094C395.526 770.879 398.056 746.482 398.105 739.366C398.188 727.168 398.057 663.124 398.057 622.462C398.009 618.396 403.594 600.098 433.684 583.833C463.774 567.569 520.091 540.46 544.489 528.94Z" fill="black"/>
</svg>
